<svg width="3200" height="765" viewBox="0 0 3200 765" fill="none" xmlns="http://www.w3.org/2000/svg">
<path d="M816 570.75C771.3 570.75 733.2 555.6 701.7 525.3C670.5 495 654.9 454.8 654.9 404.7C654.9 354.9 670.8 314.7 702.6 284.1C734.4 253.5 772.05 238.2 815.55 238.2C853.95 238.2 885.45 247.95 910.05 267.45C934.95 286.95 951.3 311.7 959.1 341.7L908.25 358.8C903.15 338.1 892.8 321.3 877.2 308.4C861.6 295.5 841.05 289.05 815.55 289.05C787.05 289.05 762.3 299.25 741.3 319.65C720.6 339.75 710.25 368.1 710.25 404.7C710.25 440.4 720.6 468.45 741.3 488.85C762 508.95 786.9 519 816 519C840.9 519 861.45 512.25 877.65 498.75C893.85 485.25 904.95 468.6 910.95 448.8L960.45 465C952.65 494.7 936.15 519.75 910.95 540.15C886.05 560.55 854.4 570.75 816 570.75ZM1071.65 652.65H1015.85L1068.5 537.9L974.903 344.85H1033.85L1096.85 483.45L1155.8 344.85H1211.15L1071.65 652.65ZM1301.59 437.55V564H1249.39V344.85H1300.24V374.1C1307.14 362.1 1316.29 353.25 1327.69 347.55C1339.39 341.55 1351.84 338.55 1365.04 338.55C1390.84 338.55 1410.49 346.65 1423.99 362.85C1437.49 379.05 1444.24 399.9 1444.24 425.4V564H1392.04V434.4C1392.04 419.7 1388.44 408 1381.24 399.3C1374.04 390.3 1362.64 385.8 1347.04 385.8C1332.64 385.8 1321.39 390.75 1313.29 400.65C1305.49 410.25 1301.59 422.55 1301.59 437.55ZM1542.89 453.75C1542.89 474.75 1548.29 491.7 1559.09 504.6C1569.89 517.2 1584.14 523.5 1601.84 523.5C1618.94 523.5 1632.89 517.05 1643.69 504.15C1654.49 491.25 1659.89 474.3 1659.89 453.3C1659.89 432.6 1654.64 416.1 1644.14 403.8C1633.64 391.5 1619.69 385.35 1602.29 385.35C1584.89 385.35 1570.64 391.65 1559.54 404.25C1548.44 416.55 1542.89 433.05 1542.89 453.75ZM1710.29 238.2V523.95C1710.29 538.65 1711.04 552 1712.54 564H1662.59C1661.09 555.6 1660.34 546.15 1660.34 535.65C1654.94 545.55 1646.54 553.65 1635.14 559.95C1623.74 566.25 1610.69 569.4 1595.99 569.4C1564.79 569.4 1539.44 558.45 1519.94 536.55C1500.44 514.65 1490.69 487.05 1490.69 453.75C1490.69 421.65 1500.44 394.5 1519.94 372.3C1539.74 350.1 1564.79 339 1595.09 339C1612.49 339 1626.44 342.15 1636.94 348.45C1647.74 354.75 1655.24 362.1 1659.44 370.5V238.2H1710.29ZM1814.94 430.35H1922.49C1921.89 416.55 1916.94 405 1907.64 395.7C1898.64 386.4 1885.59 381.75 1868.49 381.75C1852.89 381.75 1840.29 386.7 1830.69 396.6C1821.09 406.2 1815.84 417.45 1814.94 430.35ZM1928.34 487.5L1972.44 501.45C1966.14 521.55 1954.29 538.2 1936.89 551.4C1919.79 564.3 1898.64 570.75 1873.44 570.75C1842.24 570.75 1815.69 560.1 1793.79 538.8C1772.19 517.5 1761.39 489 1761.39 453.3C1761.39 419.7 1771.89 392.1 1792.89 370.5C1814.19 348.9 1839.24 338.1 1868.04 338.1C1901.64 338.1 1927.89 348.45 1946.79 369.15C1965.69 389.55 1975.14 417.15 1975.14 451.95C1975.14 461.25 1974.69 466.8 1973.79 468.6H1813.59C1814.19 485.1 1820.19 498.75 1831.59 509.55C1843.29 520.35 1857.24 525.75 1873.44 525.75C1901.64 525.75 1919.94 513 1928.34 487.5ZM2153.27 343.5V396.6C2147.27 395.7 2141.57 395.25 2136.17 395.25C2096.87 395.25 2077.22 416.7 2077.22 459.6V564H2025.02V344.85H2075.87V379.95C2080.97 368.25 2089.22 359.1 2100.62 352.5C2112.02 345.6 2124.92 342.15 2139.32 342.15C2144.12 342.15 2148.77 342.6 2153.27 343.5ZM2453.82 564H2409.72V422.25H2246.82V564H2202.72V244.95H2246.82V381.3H2409.72V244.95H2453.82V564ZM2575 512.7C2588.2 526.2 2604.25 532.95 2623.15 532.95C2642.05 532.95 2657.95 526.2 2670.85 512.7C2684.05 498.9 2690.65 479.85 2690.65 455.55C2690.65 431.55 2684.05 412.8 2670.85 399.3C2657.95 385.5 2642.05 378.6 2623.15 378.6C2604.25 378.6 2588.2 385.5 2575 399.3C2562.1 412.8 2555.65 431.55 2555.65 455.55C2555.65 479.85 2562.1 498.9 2575 512.7ZM2543.5 373.65C2564.5 351.75 2591.05 340.8 2623.15 340.8C2655.25 340.8 2681.65 351.75 2702.35 373.65C2723.35 395.25 2733.85 422.55 2733.85 455.55C2733.85 488.85 2723.5 516.45 2702.8 538.35C2682.1 559.95 2655.55 570.75 2623.15 570.75C2590.75 570.75 2564.2 559.95 2543.5 538.35C2522.8 516.45 2512.45 488.85 2512.45 455.55C2512.45 422.55 2522.8 395.25 2543.5 373.65ZM2767.72 507.75L2805.97 494.25C2807.47 505.95 2812.57 515.7 2821.27 523.5C2829.97 531 2841.67 534.75 2856.37 534.75C2867.77 534.75 2876.77 532.05 2883.37 526.65C2889.97 520.95 2893.27 514.05 2893.27 505.95C2893.27 491.55 2883.97 482.25 2865.37 478.05L2828.47 469.95C2811.67 466.35 2798.47 459.15 2788.87 448.35C2779.27 437.55 2774.47 424.5 2774.47 409.2C2774.47 390.6 2781.97 374.55 2796.97 361.05C2812.27 347.55 2830.42 340.8 2851.42 340.8C2865.22 340.8 2877.52 342.9 2888.32 347.1C2899.12 351 2907.52 356.25 2913.52 362.85C2919.52 369.45 2924.02 375.6 2927.02 381.3C2930.02 387 2932.27 392.85 2933.77 398.85L2896.42 412.8C2895.82 409.2 2894.77 405.75 2893.27 402.45C2891.77 398.85 2889.37 394.95 2886.07 390.75C2883.07 386.55 2878.57 383.25 2872.57 380.85C2866.57 378.15 2859.52 376.8 2851.42 376.8C2840.92 376.8 2832.22 379.65 2825.32 385.35C2818.72 391.05 2815.42 397.8 2815.42 405.6C2815.42 419.4 2823.67 428.1 2840.17 431.7L2875.27 439.35C2894.47 443.55 2909.17 451.35 2919.37 462.75C2929.87 473.85 2935.12 487.5 2935.12 503.7C2935.12 520.8 2928.07 536.25 2913.97 550.05C2900.17 563.85 2880.82 570.75 2855.92 570.75C2829.22 570.75 2808.37 564.15 2793.37 550.95C2778.37 537.45 2769.82 523.05 2767.72 507.75ZM3048.13 279.15V347.55H3094.93V385.8H3048.13V498.3C3048.13 508.5 3050.38 516 3054.88 520.8C3059.68 525.6 3067.48 528 3078.28 528C3084.58 528 3090.13 527.4 3094.93 526.2V562.2C3087.73 564.9 3078.13 566.25 3066.13 566.25C3047.53 566.25 3032.83 560.85 3022.03 550.05C3011.23 539.25 3005.83 524.1 3005.83 504.6V385.8H2964.43V347.55H2976.13C2987.23 347.55 2995.48 344.55 3000.88 338.55C3006.58 332.25 3009.43 324.15 3009.43 314.25V279.15H3048.13Z" fill="white"/>
<path d="M289.665 132.775C289.818 132.718 289.924 132.767 290.106 132.789C247.987 149.789 216.264 182.312 199.135 221.391C197.504 189.92 233.918 140.564 232.353 140.346C92.7449 174.648 16.1529 336.076 81.0858 470.236C48.7386 440.186 32.1285 396.007 36.1545 351.508C-91.229 580.236 141.244 843.5 376.826 742.975C520.258 684.01 586.202 516.089 522.961 374.436C521.971 415.617 510.034 455.525 489.122 490.166C473.604 438.314 425.96 381.977 357.001 360.583C369.687 383.121 379.712 407.696 386.229 431.816C484.081 502.734 463.659 656.616 349.844 698.497C270.981 727.51 185.109 685.863 156.884 607.465C130.553 534.334 163.183 453.129 231.774 418.852C232.178 418.604 279.014 398.122 319.028 354.148C319.042 353.7 318.978 353.282 318.915 352.865C319.28 352.906 319.645 352.949 320.01 352.991C406.534 257.676 419.466 111.381 346.133 0.766816C365.08 53.9504 338.762 111.655 289.665 132.775" fill="url(#paint0_linear_903:15)"/>
<path d="M146.818 554.065C145.52 659.681 249.43 736.318 349.6 699.461C462.841 657.793 485.197 503.598 386.121 431.782C395.349 464.242 398.824 503.913 397.253 525.32C391.814 635.224 249.216 674.128 190.235 581.099C152.79 522.306 176.103 443.973 238.152 415.73C238.122 415.651 238.046 415.679 238.093 415.573C183.809 438.716 147.431 493.921 146.818 554.065Z" fill="url(#paint1_linear_903:15)"/>
<defs>
<linearGradient id="paint0_linear_903:15" x1="273.52" y1="-1.52796" x2="273.52" y2="752.407" gradientUnits="userSpaceOnUse">
<stop stop-color="#F29100"/>
<stop offset="0.753695" stop-color="#EA600A"/>
<stop offset="0.990148" stop-color="#E53812"/>
<stop offset="1" stop-color="#E53812"/>
</linearGradient>
<linearGradient id="paint1_linear_903:15" x1="403.104" y1="674.68" x2="129.31" y2="371.61" gradientUnits="userSpaceOnUse">
<stop stop-color="#EA600A"/>
<stop offset="0.689152" stop-color="#F29100"/>
<stop offset="1" stop-color="#F29100"/>
</linearGradient>
</defs>
</svg>
